<svg width="256" height="256" viewBox="0 0 256 256" fill="none" xmlns="http://www.w3.org/2000/svg">
<g clip-path="url(#clip0)">
<rect width="256" height="256" fill="#C7E3E2"/>
<rect x="-103.881" y="359.548" width="547.907" height="191.858" transform="rotate(-45 -103.881 359.548)" fill="#D4EAEA"/>
<rect x="63" y="63.0022" width="129.638" height="129.638" fill="#F1F1F1"/>
<mask id="mask0" mask-type="alpha" maskUnits="userSpaceOnUse" x="63" y="28" width="130" height="165">
<rect x="63" y="28" width="129.638" height="164.64" fill="#D8D4D3"/>
</mask>
<g mask="url(#mask0)">
<path d="M148.503 147.799C148.503 147.799 148.503 169.132 127.171 169.132C105.838 169.132 105.838 147.799 105.838 147.799" fill="#FF9800"/>
<path d="M127.173 217.41C150.776 217.41 172.488 209.421 190.045 196.088C186.785 155.574 146.921 147.799 146.921 147.799L127.173 151.922L107.426 147.799C107.426 147.799 67.5508 155.424 64.2964 196.088C81.8588 209.421 103.571 217.41 127.173 217.41Z" fill="#7ED5D4"/>
<path d="M127.173 179.236C143.34 179.236 156.652 167.116 158.608 151.474C153.936 149.37 150.136 148.265 148.281 147.81C148.117 159.343 138.742 168.66 127.173 168.66C115.599 168.66 106.224 159.343 106.066 147.799C104.2 148.254 100.405 149.349 95.7336 151.437C97.6678 167.1 110.991 179.236 127.173 179.236Z" fill="#45B6B4"/>
<path d="M169.835 102.969C169.835 107.352 166.252 110.909 161.836 110.909C157.415 110.909 153.836 107.352 153.836 102.969C153.836 98.5866 157.415 95.0297 161.836 95.0297C166.252 95.0297 169.835 98.5866 169.835 102.969ZM100.505 102.969C100.505 98.5866 96.9214 95.0297 92.5056 95.0297C88.0898 95.0297 84.5059 98.5866 84.5059 102.969C84.5059 107.352 88.0898 110.909 92.5056 110.909C96.9214 110.909 100.505 107.352 100.505 102.969ZM148.503 147.96V126.788H105.838V147.96C105.838 147.96 105.838 169.132 127.171 169.132C148.503 169.132 148.503 147.96 148.503 147.96Z" fill="#BB804C"/>
<path d="M163.099 83.1463C163.099 51.9042 91.2426 62.8089 91.2426 83.1463V106.481C91.2426 126.802 107.323 143.308 127.171 143.308C147.013 143.308 163.099 126.808 163.099 106.481V83.1463Z" fill="#C58C59"/>
<path d="M127.171 42.2601C101.252 42.2601 84.5059 65.6653 84.5059 86.6067V96.5267L95.1721 107.38V85.6734L144.237 69.3934L159.169 85.6734V107.38L169.835 96.5267V92.1365C169.835 74.6735 165.404 55.219 144.237 50.9373L139.965 42.2601H127.171Z" fill="#553328"/>
<path d="M137.837 101.205C137.837 97.8023 140.226 95.0297 143.17 95.0297C146.114 95.0297 148.503 97.8023 148.503 101.205C148.503 104.607 146.114 107.38 143.17 107.38C140.226 107.38 137.837 104.607 137.837 101.205ZM105.838 101.205C105.838 104.607 108.228 107.38 111.172 107.38C114.115 107.38 116.505 104.607 116.505 101.205C116.505 97.8023 114.115 95.0297 111.172 95.0297C108.228 95.0297 105.838 97.8023 105.838 101.205Z" fill="#553328"/>
</g>
<rect x="169" y="179" width="42" height="42" rx="4" fill="#515151"/>
<path d="M202.532 213.44H178.308C177.794 213.44 177.4 213.046 177.4 212.532V206.476C177.4 205.961 177.794 205.567 178.308 205.567C178.823 205.567 179.217 205.961 179.217 206.476V211.623H201.623V206.476C201.623 205.961 202.017 205.567 202.532 205.567C203.046 205.567 203.44 205.961 203.44 206.476V212.532C203.44 213.046 203.046 213.44 202.532 213.44Z" fill="white"/>
<path d="M190.42 204.356C189.905 204.356 189.512 203.963 189.512 203.448V188.308C189.512 187.794 189.905 187.4 190.42 187.4C190.935 187.4 191.328 187.794 191.328 188.308V203.448C191.328 203.963 190.935 204.356 190.42 204.356Z" fill="white"/>
<path d="M194.962 193.759C194.72 193.759 194.508 193.668 194.326 193.486L190.42 189.58L186.514 193.486C186.151 193.849 185.575 193.849 185.242 193.486C184.879 193.123 184.879 192.547 185.242 192.214L189.784 187.672C190.147 187.309 190.723 187.309 191.056 187.672L195.598 192.214C195.961 192.578 195.961 193.153 195.598 193.486C195.416 193.668 195.204 193.759 194.962 193.759Z" fill="white"/>
</g>
<defs>
<clipPath id="clip0">
<rect width="256" height="256" fill="white"/>
</clipPath>
</defs>
</svg>
